<svg id="图层_1" data-name="图层 1" xmlns="http://www.w3.org/2000/svg" viewBox="0 0 1366 768" xmlns:xlink="http://www.w3.org/1999/xlink">
 <defs>
  <style>
   .cls-1,.cls-2{fill:#23af91;}.cls-2{fill-rule:evenodd;}
  </style>
 </defs>
 <title>
  未标题-4
 </title>
 <path class="cls-1" d="M884,384c0-4.1-.1-8-.2-11.6a64,64,0,0,0-1-10.1,33.5,33.5,0,0,0-2.8-8.8,28.5,28.5,0,0,0-5.6-7.7,34.7,34.7,0,0,0-11.3-7.8,37.1,37.1,0,0,0-14.5-2.7A37.6,37.6,0,0,0,834,338a36.2,36.2,0,0,0-11.4,7.8,28.1,28.1,0,0,0-5.5,7.7,33.5,33.5,0,0,0-2.8,8.8,64,64,0,0,0-1,10.1c-.1,3.6-.1,7.5-.1,11.6s0,8,.1,11.6a64,64,0,0,0,1,10.1,33.5,33.5,0,0,0,2.8,8.8,28.1,28.1,0,0,0,5.5,7.7A36.2,36.2,0,0,0,834,430a37.6,37.6,0,0,0,14.6,2.7,37.1,37.1,0,0,0,14.5-2.7,34.7,34.7,0,0,0,11.3-7.8,28.5,28.5,0,0,0,5.6-7.7,33.5,33.5,0,0,0,2.8-8.8,64,64,0,0,0,1-10.1c.1-3.6.2-7.5.2-11.6Zm-18.7,0q0,6.9-.3,11.4a64.2,64.2,0,0,1-.7,7.5,20,20,0,0,1-1.5,4.7,15,15,0,0,1-2.3,3.3,13.4,13.4,0,0,1-5,3.7,17,17,0,0,1-6.9,1.4,17.5,17.5,0,0,1-7-1.4,13,13,0,0,1-5.1-3.7,15,15,0,0,1-2.3-3.3,20.4,20.4,0,0,1-1.4-4.7,64.2,64.2,0,0,1-.7-7.5c-.1-3-.2-6.8-.2-11.4s.1-8.4.2-11.4a64.2,64.2,0,0,1,.7-7.5,20.4,20.4,0,0,1,1.4-4.7,15,15,0,0,1,2.3-3.3,13,13,0,0,1,5.1-3.7,17.5,17.5,0,0,1,7-1.4,17,17,0,0,1,6.9,1.4,13.4,13.4,0,0,1,5,3.7,15,15,0,0,1,2.3,3.3,20,20,0,0,1,1.5,4.7,64.2,64.2,0,0,1,.7,7.5Q865.3,377.1,865.3,384Z">
 </path>
 <path class="cls-1" d="M1033,337.8a1.6,1.6,0,0,0-1.6-1.7h-15.5a1.7,1.7,0,0,0-1.6,1.7v57l-37.6-58.2a1.1,1.1,0,0,0-1.1-.5H961.3a1.6,1.6,0,0,0-1.6,1.6v92.6a1.6,1.6,0,0,0,1.6,1.6h15.4a1.7,1.7,0,0,0,1.7-1.6V373.1l37.6,58.3a1.1,1.1,0,0,0,1.1.5h14.3a1.6,1.6,0,0,0,1.6-1.6Z">
 </path>
 <path class="cls-1" d="M929.6,337.8a1.7,1.7,0,0,0-1.7-1.7H912.5a1.7,1.7,0,0,0-1.6,1.7v92.4a1.7,1.7,0,0,0,1.6,1.7h15.4a1.7,1.7,0,0,0,1.7-1.7Z">
 </path>
 <path class="cls-1" d="M745,384c0-4.6,0-8.4.2-11.5a60.2,60.2,0,0,1,.7-7.4c1.4-8.3,7.7-13.1,15.8-13.1,5.2,0,10,2,13,6.4a18.3,18.3,0,0,1,3,6.8c.1.2.2.4.5.4h18.2c.3,0,.4-.2.3-.5-2-11.2-8-21.3-18.5-26.3a39.3,39.3,0,0,0-16.7-3.5,35.1,35.1,0,0,0-25.8,10.5,27.6,27.6,0,0,0-7.8,14.4c-1,5.4-1.6,13.3-1.6,23.8s.6,18.4,1.6,23.8a27.6,27.6,0,0,0,7.8,14.4,35.1,35.1,0,0,0,25.8,10.5,39.3,39.3,0,0,0,16.7-3.5c10.5-5,16.5-15.1,18.5-26.3.1-.3,0-.5-.3-.5H778.2c-.3,0-.4.2-.5.4a18.3,18.3,0,0,1-3,6.8c-3,4.4-7.8,6.4-13,6.4-8.1,0-14.4-4.8-15.8-13.1a60.2,60.2,0,0,1-.7-7.4C745,392.4,745,388.6,745,384Z">
 </path>
 <path class="cls-1" d="M553.3,337.7a1.6,1.6,0,0,0-1.6-1.6H536.3a1.7,1.7,0,0,0-1.7,1.6v92.6a1.7,1.7,0,0,0,1.7,1.6h15.4a1.6,1.6,0,0,0,1.6-1.6V403.1l12.4-14.8,25.4,43.1a1.1,1.1,0,0,0,.9.5h18.8c.8,0,1-.6.5-1.3l-33.2-56.4,30.5-36.6c.6-.8.4-1.5-.6-1.5H587.5a.7.7,0,0,0-.6.3l-33.6,40.3Z">
 </path>
 <path class="cls-1" d="M665.6,416c-8.6,0-16.5-8-16.5-17.6V337.7a1.6,1.6,0,0,0-1.6-1.6H632a1.6,1.6,0,0,0-1.6,1.6v60.5c0,21.1,15.8,34.5,35.2,34.5s35.3-13.4,35.3-34.5V337.7a1.7,1.7,0,0,0-1.7-1.6H683.8a1.6,1.6,0,0,0-1.6,1.6v60.7C682.2,408,674.3,416,665.6,416Z">
 </path>
 <path class="cls-2" d="M379.6,384l47.9,47.9,30.2-30.2A13.6,13.6,0,0,1,477,421l-39.8,39.9a13.9,13.9,0,0,1-19.4,0l-57.5-57.6v34.2a13.7,13.7,0,1,1-27.3,0v-107a13.7,13.7,0,1,1,27.3,0v34.2l57.5-57.6a13.9,13.9,0,0,1,19.4,0L477,347a13.6,13.6,0,0,1-19.3,19.3l-30.2-30.2L379.6,384Zm47.9-13.7h0A13.7,13.7,0,1,0,441.2,384,13.7,13.7,0,0,0,427.5,370.3Z">
 </path>
</svg>