<svg width="33" height="25" viewBox="0 0 33 25" fill="none" xmlns="http://www.w3.org/2000/svg"><path d="M24.7354 10.8438C27.0644 10.8438 28.9536 8.9559 28.9536 6.62699C28.9536 4.29807 27.0644 2.41016 24.7354 2.41016" stroke="#3772FF" stroke-width="1.5" stroke-linecap="round" stroke-linejoin="round"></path><path d="M26.6747 15.4258C27.3701 15.4737 28.0616 15.5723 28.7424 15.7256C29.6884 15.9108 30.8262 16.2985 31.2312 17.1472C31.4897 17.6907 31.4897 18.3236 31.2312 18.8685C30.8275 19.7172 29.6884 20.1036 28.7424 20.2981" stroke="#3772FF" stroke-width="1.5" stroke-linecap="round" stroke-linejoin="round"></path><path d="M8.30432 10.8438C5.9754 10.8438 4.08615 8.9559 4.08615 6.62699C4.08615 4.29807 5.9754 2.41016 8.30432 2.41016" stroke="#3772FF" stroke-width="1.5" stroke-linecap="round" stroke-linejoin="round"></path><path d="M6.36512 15.4258C5.66964 15.4737 4.97816 15.5723 4.29734 15.7256C3.35138 15.9108 2.21357 16.2985 1.80987 17.1472C1.55007 17.6907 1.55007 18.3236 1.80987 18.8685C2.21224 19.7172 3.35138 20.1036 4.29734 20.2981" stroke="#3772FF" stroke-width="1.5" stroke-linecap="round" stroke-linejoin="round"></path><path fill-rule="evenodd" clip-rule="evenodd" d="M16.5131 16.334C21.2322 16.334 25.2638 17.0481 25.2638 19.906C25.2638 22.7625 21.2589 23.5033 16.5131 23.5033C11.7926 23.5033 7.76233 22.7891 7.76233 19.9313C7.76233 17.0734 11.7673 16.334 16.5131 16.334Z" stroke="#3772FF" stroke-width="1.5" stroke-linecap="round" stroke-linejoin="round"></path><path fill-rule="evenodd" clip-rule="evenodd" d="M16.5131 12.2579C13.4008 12.2579 10.9053 9.76246 10.9053 6.6488C10.9053 3.53647 13.4008 1.04102 16.5131 1.04102C19.6254 1.04102 22.1209 3.53647 22.1209 6.6488C22.1209 9.76246 19.6254 12.2579 16.5131 12.2579Z" stroke="#3772FF" stroke-width="1.5" stroke-linecap="round" stroke-linejoin="round"></path></svg>