<svg width="24" height="18" viewBox="0 0 24 18" fill="none" xmlns="http://www.w3.org/2000/svg">
    <path fill-rule="evenodd" clip-rule="evenodd" d="M15.5763 17.0837C20.1786 17.0837 23.9096 13.3527 23.9096 8.75032C23.9096 4.14795 20.1786 0.416992 15.5763 0.416992C12.0556 0.416992 9.04483 2.60027 7.82408 5.68678C7.23371 5.48653 6.60104 5.37793 5.943 5.37793C2.71059 5.37793 0.09021 7.99831 0.09021 11.2307C0.09021 14.4631 2.71059 17.0835 5.943 17.0835L5.94287 17.0837H14.7016C14.7958 17.0837 14.8892 17.0766 14.9811 17.0627C15.1777 17.0766 15.3761 17.0837 15.5763 17.0837ZM10.2874 15.1905C10.2808 15.1851 10.2743 15.1797 10.2677 15.1743C10.2551 15.1882 10.2424 15.202 10.2297 15.2157L10.2874 15.1905Z" fill="white">
    </path>
</svg>