<svg width="20" height="20" viewBox="0 0 20 20" fill="none" xmlns="http://www.w3.org/2000/svg">
    <path fill-rule="evenodd" clip-rule="evenodd" d="M15.8333 4.16667H4.16665C3.24617 4.16667 2.49998 4.91286 2.49998 5.83333V14.1667C2.49998 15.0871 3.24617 15.8333 4.16665 15.8333H15.8333C16.7538 15.8333 17.5 15.0871 17.5 14.1667V5.83333C17.5 4.91286 16.7538 4.16667 15.8333 4.16667ZM4.16665 2.5C2.3257 2.5 0.833313 3.99238 0.833313 5.83333V14.1667C0.833313 16.0076 2.3257 17.5 4.16665 17.5H15.8333C17.6743 17.5 19.1666 16.0076 19.1666 14.1667V5.83333C19.1666 3.99238 17.6743 2.5 15.8333 2.5H4.16665Z" fill="white"></path><path fill-rule="evenodd" clip-rule="evenodd" d="M10.8333 9.99967C10.8333 7.69849 12.6988 5.83301 15 5.83301H18.3333C18.7935 5.83301 19.1666 6.2061 19.1666 6.66634C19.1666 7.12658 18.7935 7.49967 18.3333 7.49967H15C13.6193 7.49967 12.5 8.61896 12.5 9.99967C12.5 11.3804 13.6193 12.4997 15 12.4997H18.3333C18.7935 12.4997 19.1666 12.8728 19.1666 13.333C19.1666 13.7932 18.7935 14.1663 18.3333 14.1663H15C12.6988 14.1663 10.8333 12.3009 10.8333 9.99967Z" fill="white"></path><path d="M15.8334 10.0003C15.8334 10.4606 15.4603 10.8337 15 10.8337C14.5398 10.8337 14.1667 10.4606 14.1667 10.0003C14.1667 9.54009 14.5398 9.16699 15 9.16699C15.4603 9.16699 15.8334 9.54009 15.8334 10.0003Z" fill="white">
    </path>
</svg>